<svg width="20" height="20" viewBox="0 0 20 20" fill="none" xmlns="http://www.w3.org/2000/svg">
<circle cx="2.70996" cy="2.5" r="2.5" fill="currentColor"/>
<rect x="0.459961" y="7" width="4.5" height="13" rx="1" fill="currentColor"/>
<rect x="7.29004" y="7.48523" width="3.33333" height="12.0146" rx="0.5" fill="currentColor" stroke="currentColor"/>
<rect x="15.957" y="11.3896" width="3.33333" height="8.11024" rx="0.5" fill="currentColor" stroke="currentColor"/>
<path d="M15.1465 7.15991C16.7061 7.15991 17.7225 7.7492 18.3584 8.52319C19.0076 9.31346 19.2899 10.3335 19.29 11.2146V12.3386C19.2352 12.3383 19.1768 12.338 19.1152 12.3376C18.7085 12.3353 18.1655 12.3327 17.623 12.3308C17.081 12.329 16.5376 12.3284 16.1299 12.3298C16.0516 12.3301 15.978 12.3304 15.9102 12.3308C15.8304 11.8575 15.6447 11.3409 15.3447 10.8953C14.9237 10.2699 14.2433 9.73913 13.29 9.73901C12.5882 9.73901 12.0345 10.0272 11.623 10.4285V8.73706C11.7618 8.47591 12.0132 8.11746 12.4805 7.8103C13.0046 7.46595 13.8342 7.15997 15.1465 7.15991Z" fill="currentColor" stroke="currentColor"/>
</svg>
